# xmcd
#
# Track frame offsets: 
#        150
#        17488
#        32890
#        47112
#        61006
#        76252
#        90562
#        110362
#        128942
#        148275
#
# Disc length: 2209 seconds
#
# Revision: 0
# Processed by: cddbd v1.5.2PL0 Copyright (c) Steve Scherf et al.
# Submitted via: ExactAudioCopyFreeDBPlugin 1.0
#
DISCID=7e089f0a
DTITLE=Gail Davies - Where Is A Woman To Go
DYEAR=1984
DGENRE=Country
TTITLE0=Break Away
TTITLE1=The Trouble With Love
TTITLE2=Nothing Can Hurt Me Now
TTITLE3=Lovin' Me Too
TTITLE4=Unwed Fathers
TTITLE5=Different Train Of Thought
TTITLE6=Lion In The Winter
TTITLE7=Where Is A Woman To Go
TTITLE8=Jagged Edge Of A Broken Heart
TTITLE9=Not A Day Goes By
EXTD=
EXTT0=
EXTT1=
EXTT2=
EXTT3=
EXTT4=
EXTT5=
EXTT6=
EXTT7=
EXTT8=
EXTT9=
PLAYORDER=
